<?xml version="1.0" encoding="UTF-8" standalone="no"?>
<svg
   version="1"
   viewBox="0 0 48 48"
   enable-background="new 0 0 48 48"
   id="svg106"
   sodipodi:docname="approval_roundtrip.svg"
   inkscape:version="1.2.2 (b0a8486541, 2022-12-01)"
   xmlns:inkscape="http://www.inkscape.org/namespaces/inkscape"
   xmlns:sodipodi="http://sodipodi.sourceforge.net/DTD/sodipodi-0.dtd"
   xmlns="http://www.w3.org/2000/svg"
   xmlns:svg="http://www.w3.org/2000/svg">
  <defs
     id="defs110">
    <marker
       style="overflow:visible"
       id="marker3748"
       refX="0"
       refY="0"
       orient="auto-start-reverse"
       inkscape:stockid="Arrow4"
       markerWidth="7"
       markerHeight="7"
       viewBox="0 0 5 6"
       inkscape:isstock="true"
       inkscape:collect="always"
       preserveAspectRatio="none">
      <path
         style="fill:context-stroke;fill-rule:evenodd;stroke:none"
         d="m 1,0 -3,3 h -2 l 3,-3 -3,-3 h 2 z"
         id="path3746" />
    </marker>
    <marker
       style="overflow:visible"
       id="Arrow4"
       refX="0"
       refY="0"
       orient="auto-start-reverse"
       inkscape:stockid="Arrow4"
       markerWidth="7"
       markerHeight="7"
       viewBox="0 0 5 6"
       inkscape:isstock="true"
       inkscape:collect="always"
       preserveAspectRatio="xMidYMid">
      <path
         style="fill:context-stroke;fill-rule:evenodd;stroke:none"
         d="m 1,0 -3,3 h -2 l 3,-3 -3,-3 h 2 z"
         id="path1741" />
    </marker>
  </defs>
  <sodipodi:namedview
     id="namedview108"
     pagecolor="#ffffff"
     bordercolor="#666666"
     borderopacity="1.0"
     inkscape:showpageshadow="2"
     inkscape:pageopacity="0.0"
     inkscape:pagecheckerboard="0"
     inkscape:deskcolor="#d1d1d1"
     showgrid="false"
     inkscape:zoom="18.041667"
     inkscape:cx="37.274827"
     inkscape:cy="25.136259"
     inkscape:window-width="1920"
     inkscape:window-height="1010"
     inkscape:window-x="1920"
     inkscape:window-y="0"
     inkscape:window-maximized="1"
     inkscape:current-layer="svg106" />
  <polygon
     fill="#8BC34A"
     points="24,3 28.7,6.6 34.5,5.8 36.7,11.3 42.2,13.5 41.4,19.3 45,24 41.4,28.7 42.2,34.5 36.7,36.7 34.5,42.2 28.7,41.4 24,45 19.3,41.4 13.5,42.2 11.3,36.7 5.8,34.5 6.6,28.7 3,24 6.6,19.3 5.8,13.5 11.3,11.3 13.5,5.8 19.3,6.6"
     id="polygon102" />
  <polygon
     fill="#CCFF90"
     points="34.6,14.6 21,28.2 15.4,22.6 12.6,25.4 21,33.8 37.4,17.4"
     id="polygon104" />
  <path
     style="fill:none;fill-rule:evenodd;stroke:#000000;stroke-width:1.5;stroke-dasharray:none;stroke-opacity:1;stop-color:#000000;marker-start:url(#marker3748);stroke-miterlimit:4;stroke-dashoffset:0"
     d="M 5.2128906,36.503906 C 9.3947034,42.795928 16.445066,46.580945 24,46.589844 36.476001,46.589783 46.589783,36.476001 46.589844,24 46.589178,19.573234 45.287893,15.244221 42.847656,11.550781"
     id="path3509"
     sodipodi:nodetypes="cccc" />
  <path
     style="fill:none;fill-rule:evenodd;stroke:#000000;stroke-width:1.5;stroke-dasharray:none;stroke-opacity:1;stop-color:#000000;marker-start:url(#Arrow4);stroke-miterlimit:4;stroke-dashoffset:0"
     d="M 42.404297,10.912109 C 38.168554,4.9532548 31.310913,1.4127242 24,1.4101562 11.523999,1.4102171 1.4102171,11.523999 1.4101562,24 c 0.00946,4.183723 1.1805752,8.282629 3.3828126,11.839844"
     id="path2722"
     sodipodi:nodetypes="cccc" />
</svg>
