<?xml version="1.0" encoding="UTF-8" standalone="no"?>
<svg
   version="1"
   viewBox="0 0 48 48"
   enable-background="new 0 0 48 48"
   id="svg216"
   sodipodi:docname="broken_link_roundtrip.svg"
   inkscape:version="1.2.2 (b0a8486541, 2022-12-01)"
   xmlns:inkscape="http://www.inkscape.org/namespaces/inkscape"
   xmlns:sodipodi="http://sodipodi.sourceforge.net/DTD/sodipodi-0.dtd"
   xmlns="http://www.w3.org/2000/svg"
   xmlns:svg="http://www.w3.org/2000/svg">
  <defs
     id="defs220">
    <marker
       style="overflow:visible"
       id="Arrow4"
       refX="0"
       refY="0"
       orient="auto-start-reverse"
       inkscape:stockid="Arrow4"
       markerWidth="7"
       markerHeight="7"
       viewBox="0 0 5 6"
       inkscape:isstock="true"
       inkscape:collect="always"
       preserveAspectRatio="xMidYMid">
      <path
         style="fill:context-stroke;fill-rule:evenodd;stroke:none"
         d="m 1,0 -3,3 h -2 l 3,-3 -3,-3 h 2 z"
         id="path1741" />
    </marker>
    <marker
       style="overflow:visible"
       id="marker3748"
       refX="0"
       refY="0"
       orient="auto-start-reverse"
       inkscape:stockid="Arrow4"
       markerWidth="7"
       markerHeight="7"
       viewBox="0 0 5 6"
       inkscape:isstock="true"
       inkscape:collect="always"
       preserveAspectRatio="none">
      <path
         style="fill:context-stroke;fill-rule:evenodd;stroke:none"
         d="m 1,0 -3,3 h -2 l 3,-3 -3,-3 h 2 z"
         id="path3746" />
    </marker>
  </defs>
  <sodipodi:namedview
     id="namedview218"
     pagecolor="#ffffff"
     bordercolor="#666666"
     borderopacity="1.0"
     inkscape:showpageshadow="2"
     inkscape:pageopacity="0.0"
     inkscape:pagecheckerboard="0"
     inkscape:deskcolor="#d1d1d1"
     showgrid="false"
     inkscape:zoom="18.041667"
     inkscape:cx="22.198614"
     inkscape:cy="28.461894"
     inkscape:window-width="1920"
     inkscape:window-height="1010"
     inkscape:window-x="1920"
     inkscape:window-y="0"
     inkscape:window-maximized="1"
     inkscape:current-layer="svg216" />
  <g
     fill="#1976D2"
     id="g204">
    <path
       d="M17.5,27c-1.1,1.2-2.7,2-4.5,2h-3c-3.3,0-6-2.7-6-6s2.7-6,6-6h3c1.8,0,3.4,0.8,4.5,2h4.7 c-1.5-3.5-5.1-6-9.2-6h-3C4.5,13,0,17.5,0,23s4.5,10,10,10h3c4.1,0,7.6-2.5,9.2-6H17.5z"
       id="path200" />
    <path
       d="M38,13h-3c-4.1,0-7.6,2.5-9.2,6h4.7c1.1-1.2,2.7-2,4.5-2h3c3.3,0,6,2.7,6,6s-2.7,6-6,6h-3 c-1.8,0-3.4-0.8-4.5-2h-4.7c1.5,3.5,5.1,6,9.2,6h3c5.5,0,10-4.5,10-10S43.5,13,38,13z"
       id="path202" />
  </g>
  <g
     fill="#00BCD4"
     id="g214">
    <polygon
       points="19.5,4 16,6 22.1,14.1 23.4,13.3"
       id="polygon206" />
    <polygon
       points="28.5,4 32,6 25.9,14.1 24.6,13.3"
       id="polygon208" />
    <polygon
       points="28.5,44 32,42 25.9,33.9 24.6,34.7"
       id="polygon210" />
    <polygon
       points="19.5,44 16,42 22.1,33.9 23.4,34.7"
       id="polygon212" />
  </g>
  <g
     id="g586"
     transform="translate(5.7090069,-7.9260971)">
    <path
       style="fill:none;fill-rule:evenodd;stroke:#000000;stroke-width:1.5;stroke-miterlimit:4;stroke-dasharray:none;stroke-dashoffset:0;stroke-opacity:1;marker-start:url(#marker3748);stop-color:#000000"
       d="M -0.4961164,44.430003 C 3.6856964,50.722025 10.736059,54.507042 18.290993,54.515941 30.766994,54.51588 40.880776,44.402098 40.880837,31.926097 40.880171,27.499331 39.578886,23.170318 37.138649,19.476878"
       id="path3509"
       sodipodi:nodetypes="cccc" />
    <path
       style="fill:none;fill-rule:evenodd;stroke:#000000;stroke-width:1.5;stroke-miterlimit:4;stroke-dasharray:none;stroke-dashoffset:0;stroke-opacity:1;marker-start:url(#Arrow4);stop-color:#000000"
       d="M 36.69529,18.838206 C 32.459547,12.879352 25.601906,9.3388211 18.290993,9.3362531 5.814992,9.336314 -4.2987899,19.450096 -4.2988508,31.926097 c 0.00946,4.183723 1.1805752,8.282629 3.3828126,11.839844"
       id="path2722"
       sodipodi:nodetypes="cccc" />
  </g>
</svg>
